<mxfile host="app.diagrams.net" agent="Mozilla/5.0 (Windows NT 10.0; Win64; x64) AppleWebKit/537.36 (KHTML, like Gecko) Chrome/135.0.0.0 Safari/537.36" version="27.0.3">
  <diagram name="PÃ¡gina-1" id="_S1olrv1WyXe5O93p0MQ">
    <mxGraphModel grid="1" page="1" gridSize="10" guides="1" tooltips="1" connect="1" arrows="1" fold="1" pageScale="1" pageWidth="827" pageHeight="1169" math="0" shadow="0">
      <root>
        <mxCell id="0" />
        <mxCell id="1" parent="0" />
        <mxCell id="tZy0hRPs5cQLzcROsrVT-1" value="Frontend" style="rounded=0;whiteSpace=wrap;html=1;fillColor=#dae8fc;strokeColor=#6c8ebf;" vertex="1" parent="1">
          <mxGeometry x="20" y="340" width="120" height="60" as="geometry" />
        </mxCell>
        <mxCell id="tZy0hRPs5cQLzcROsrVT-2" value="API Gatway" style="rounded=0;whiteSpace=wrap;html=1;fillColor=#f5f5f5;fontColor=#333333;strokeColor=#666666;" vertex="1" parent="1">
          <mxGeometry x="190" y="340" width="120" height="60" as="geometry" />
        </mxCell>
        <mxCell id="tZy0hRPs5cQLzcROsrVT-3" value="user-service" style="rounded=0;whiteSpace=wrap;html=1;fillColor=#d5e8d4;strokeColor=#82b366;" vertex="1" parent="1">
          <mxGeometry x="360" y="100" width="120" height="60" as="geometry" />
        </mxCell>
        <mxCell id="tZy0hRPs5cQLzcROsrVT-5" value="article -service" style="rounded=0;whiteSpace=wrap;html=1;fillColor=#d5e8d4;strokeColor=#82b366;" vertex="1" parent="1">
          <mxGeometry x="360" y="260" width="120" height="60" as="geometry" />
        </mxCell>
        <mxCell id="tZy0hRPs5cQLzcROsrVT-6" value="role-service" style="rounded=0;whiteSpace=wrap;html=1;fillColor=#d5e8d4;strokeColor=#82b366;" vertex="1" parent="1">
          <mxGeometry x="360" y="340" width="120" height="60" as="geometry" />
        </mxCell>
        <mxCell id="tZy0hRPs5cQLzcROsrVT-7" value="auth-service" style="rounded=0;whiteSpace=wrap;html=1;fillColor=#f8cecc;strokeColor=#b85450;" vertex="1" parent="1">
          <mxGeometry x="530" y="340" width="120" height="60" as="geometry" />
        </mxCell>
        <mxCell id="tZy0hRPs5cQLzcROsrVT-8" value="user-profile-service" style="rounded=0;whiteSpace=wrap;html=1;fillColor=#d5e8d4;strokeColor=#82b366;" vertex="1" parent="1">
          <mxGeometry x="360" y="180" width="120" height="60" as="geometry" />
        </mxCell>
        <mxCell id="tZy0hRPs5cQLzcROsrVT-9" value="topic-service" style="rounded=0;whiteSpace=wrap;html=1;fillColor=#d5e8d4;strokeColor=#82b366;" vertex="1" parent="1">
          <mxGeometry x="360" y="420" width="120" height="60" as="geometry" />
        </mxCell>
        <mxCell id="tZy0hRPs5cQLzcROsrVT-10" value="comment-service" style="rounded=0;whiteSpace=wrap;html=1;fillColor=#d5e8d4;strokeColor=#82b366;" vertex="1" parent="1">
          <mxGeometry x="360" y="500" width="120" height="60" as="geometry" />
        </mxCell>
        <mxCell id="tZy0hRPs5cQLzcROsrVT-11" value="notification-service" style="rounded=0;whiteSpace=wrap;html=1;fillColor=#d5e8d4;strokeColor=#82b366;" vertex="1" parent="1">
          <mxGeometry x="360" y="580" width="120" height="60" as="geometry" />
        </mxCell>
        <mxCell id="tZy0hRPs5cQLzcROsrVT-12" value="search-service" style="rounded=0;whiteSpace=wrap;html=1;fillColor=#d5e8d4;strokeColor=#82b366;" vertex="1" parent="1">
          <mxGeometry x="360" y="660" width="120" height="60" as="geometry" />
        </mxCell>
        <mxCell id="tZy0hRPs5cQLzcROsrVT-13" value="admin-service" style="rounded=0;whiteSpace=wrap;html=1;fillColor=#d5e8d4;strokeColor=#82b366;" vertex="1" parent="1">
          <mxGeometry x="360" y="20" width="120" height="60" as="geometry" />
        </mxCell>
        <mxCell id="tZy0hRPs5cQLzcROsrVT-14" value="DB" style="rounded=0;whiteSpace=wrap;html=1;fillColor=#fff2cc;strokeColor=#d6b656;" vertex="1" parent="1">
          <mxGeometry x="700" y="340" width="120" height="60" as="geometry" />
        </mxCell>
        <mxCell id="tZy0hRPs5cQLzcROsrVT-17" value="" style="endArrow=classic;html=1;rounded=0;" edge="1" parent="1">
          <mxGeometry width="50" height="50" relative="1" as="geometry">
            <mxPoint x="140" y="369.71" as="sourcePoint" />
            <mxPoint x="190" y="369.71" as="targetPoint" />
          </mxGeometry>
        </mxCell>
        <mxCell id="tZy0hRPs5cQLzcROsrVT-18" value="" style="endArrow=classic;html=1;rounded=0;" edge="1" parent="1">
          <mxGeometry width="50" height="50" relative="1" as="geometry">
            <mxPoint x="310" y="369.71" as="sourcePoint" />
            <mxPoint x="360" y="369.71" as="targetPoint" />
          </mxGeometry>
        </mxCell>
        <mxCell id="tZy0hRPs5cQLzcROsrVT-20" value="" style="endArrow=classic;html=1;rounded=0;" edge="1" parent="1">
          <mxGeometry width="50" height="50" relative="1" as="geometry">
            <mxPoint x="480" y="369.5" as="sourcePoint" />
            <mxPoint x="530" y="369.5" as="targetPoint" />
          </mxGeometry>
        </mxCell>
        <mxCell id="tZy0hRPs5cQLzcROsrVT-21" value="" style="endArrow=classic;html=1;rounded=0;" edge="1" parent="1">
          <mxGeometry width="50" height="50" relative="1" as="geometry">
            <mxPoint x="650" y="369.5" as="sourcePoint" />
            <mxPoint x="700" y="369.5" as="targetPoint" />
          </mxGeometry>
        </mxCell>
        <mxCell id="tZy0hRPs5cQLzcROsrVT-24" value="" style="endArrow=classic;html=1;rounded=0;entryX=0;entryY=0.5;entryDx=0;entryDy=0;" edge="1" parent="1" target="tZy0hRPs5cQLzcROsrVT-13">
          <mxGeometry width="50" height="50" relative="1" as="geometry">
            <mxPoint x="310" y="370" as="sourcePoint" />
            <mxPoint x="460" y="330" as="targetPoint" />
            <Array as="points">
              <mxPoint x="330" y="370" />
              <mxPoint x="330" y="50" />
              <mxPoint x="340" y="50" />
            </Array>
          </mxGeometry>
        </mxCell>
        <mxCell id="tZy0hRPs5cQLzcROsrVT-26" value="" style="endArrow=classic;html=1;rounded=0;" edge="1" parent="1">
          <mxGeometry width="50" height="50" relative="1" as="geometry">
            <mxPoint x="330" y="130" as="sourcePoint" />
            <mxPoint x="360" y="129.57999999999998" as="targetPoint" />
          </mxGeometry>
        </mxCell>
        <mxCell id="tZy0hRPs5cQLzcROsrVT-28" value="" style="endArrow=classic;html=1;rounded=0;" edge="1" parent="1">
          <mxGeometry width="50" height="50" relative="1" as="geometry">
            <mxPoint x="330" y="210" as="sourcePoint" />
            <mxPoint x="360" y="209.57999999999998" as="targetPoint" />
          </mxGeometry>
        </mxCell>
        <mxCell id="tZy0hRPs5cQLzcROsrVT-30" value="" style="endArrow=classic;html=1;rounded=0;" edge="1" parent="1">
          <mxGeometry width="50" height="50" relative="1" as="geometry">
            <mxPoint x="330" y="290" as="sourcePoint" />
            <mxPoint x="360" y="289.58" as="targetPoint" />
          </mxGeometry>
        </mxCell>
        <mxCell id="tZy0hRPs5cQLzcROsrVT-32" value="" style="endArrow=classic;html=1;rounded=0;" edge="1" parent="1">
          <mxGeometry width="50" height="50" relative="1" as="geometry">
            <mxPoint x="330" y="450" as="sourcePoint" />
            <mxPoint x="360" y="449.58" as="targetPoint" />
          </mxGeometry>
        </mxCell>
        <mxCell id="tZy0hRPs5cQLzcROsrVT-33" value="" style="endArrow=classic;html=1;rounded=0;" edge="1" parent="1">
          <mxGeometry width="50" height="50" relative="1" as="geometry">
            <mxPoint x="330" y="530" as="sourcePoint" />
            <mxPoint x="360" y="529.5799999999999" as="targetPoint" />
          </mxGeometry>
        </mxCell>
        <mxCell id="tZy0hRPs5cQLzcROsrVT-34" value="" style="endArrow=classic;html=1;rounded=0;" edge="1" parent="1">
          <mxGeometry width="50" height="50" relative="1" as="geometry">
            <mxPoint x="330" y="610" as="sourcePoint" />
            <mxPoint x="360" y="609.5799999999999" as="targetPoint" />
          </mxGeometry>
        </mxCell>
        <mxCell id="tZy0hRPs5cQLzcROsrVT-39" value="" style="endArrow=classic;html=1;rounded=0;entryX=0;entryY=0.5;entryDx=0;entryDy=0;" edge="1" parent="1" target="tZy0hRPs5cQLzcROsrVT-12">
          <mxGeometry width="50" height="50" relative="1" as="geometry">
            <mxPoint x="310" y="370" as="sourcePoint" />
            <mxPoint x="400" y="370" as="targetPoint" />
            <Array as="points">
              <mxPoint x="330" y="370" />
              <mxPoint x="330" y="390" />
              <mxPoint x="330" y="690" />
            </Array>
          </mxGeometry>
        </mxCell>
        <mxCell id="tZy0hRPs5cQLzcROsrVT-40" value="" style="endArrow=classic;html=1;rounded=0;" edge="1" parent="1">
          <mxGeometry width="50" height="50" relative="1" as="geometry">
            <mxPoint x="530" y="370" as="sourcePoint" />
            <mxPoint x="510" y="50" as="targetPoint" />
            <Array as="points">
              <mxPoint x="510" y="370" />
              <mxPoint x="510" y="50" />
              <mxPoint x="480" y="50" />
            </Array>
          </mxGeometry>
        </mxCell>
        <mxCell id="tZy0hRPs5cQLzcROsrVT-41" value="" style="endArrow=classic;html=1;rounded=0;" edge="1" parent="1">
          <mxGeometry width="50" height="50" relative="1" as="geometry">
            <mxPoint x="530" y="370" as="sourcePoint" />
            <mxPoint x="510" y="690" as="targetPoint" />
            <Array as="points">
              <mxPoint x="510" y="370" />
              <mxPoint x="510" y="390" />
              <mxPoint x="510" y="690" />
              <mxPoint x="480" y="690" />
            </Array>
          </mxGeometry>
        </mxCell>
        <mxCell id="tZy0hRPs5cQLzcROsrVT-42" value="" style="endArrow=classic;html=1;rounded=0;" edge="1" parent="1">
          <mxGeometry width="50" height="50" relative="1" as="geometry">
            <mxPoint x="480" y="609.66" as="sourcePoint" />
            <mxPoint x="510" y="609.66" as="targetPoint" />
          </mxGeometry>
        </mxCell>
        <mxCell id="tZy0hRPs5cQLzcROsrVT-46" value="" style="endArrow=classic;html=1;rounded=0;" edge="1" parent="1">
          <mxGeometry width="50" height="50" relative="1" as="geometry">
            <mxPoint x="480" y="529.66" as="sourcePoint" />
            <mxPoint x="510" y="529.66" as="targetPoint" />
          </mxGeometry>
        </mxCell>
        <mxCell id="tZy0hRPs5cQLzcROsrVT-47" value="" style="endArrow=classic;html=1;rounded=0;" edge="1" parent="1">
          <mxGeometry width="50" height="50" relative="1" as="geometry">
            <mxPoint x="480" y="449.65999999999997" as="sourcePoint" />
            <mxPoint x="510" y="449.65999999999997" as="targetPoint" />
          </mxGeometry>
        </mxCell>
        <mxCell id="tZy0hRPs5cQLzcROsrVT-48" value="" style="endArrow=classic;html=1;rounded=0;" edge="1" parent="1">
          <mxGeometry width="50" height="50" relative="1" as="geometry">
            <mxPoint x="480" y="289.65999999999997" as="sourcePoint" />
            <mxPoint x="510" y="289.65999999999997" as="targetPoint" />
          </mxGeometry>
        </mxCell>
        <mxCell id="tZy0hRPs5cQLzcROsrVT-49" value="" style="endArrow=classic;html=1;rounded=0;" edge="1" parent="1">
          <mxGeometry width="50" height="50" relative="1" as="geometry">
            <mxPoint x="480" y="209.65999999999994" as="sourcePoint" />
            <mxPoint x="510" y="209.65999999999994" as="targetPoint" />
          </mxGeometry>
        </mxCell>
        <mxCell id="tZy0hRPs5cQLzcROsrVT-50" value="" style="endArrow=classic;html=1;rounded=0;" edge="1" parent="1">
          <mxGeometry width="50" height="50" relative="1" as="geometry">
            <mxPoint x="480" y="129.66" as="sourcePoint" />
            <mxPoint x="510" y="129.66" as="targetPoint" />
          </mxGeometry>
        </mxCell>
        <mxCell id="tZy0hRPs5cQLzcROsrVT-51" value="" style="ellipse;whiteSpace=wrap;html=1;aspect=fixed;fillColor=#dae8fc;strokeColor=#6c8ebf;" vertex="1" parent="1">
          <mxGeometry x="10" y="10" width="20" height="20" as="geometry" />
        </mxCell>
        <mxCell id="tZy0hRPs5cQLzcROsrVT-54" value="" style="ellipse;whiteSpace=wrap;html=1;aspect=fixed;fillColor=#f5f5f5;strokeColor=#666666;fontColor=#333333;" vertex="1" parent="1">
          <mxGeometry x="10" y="40" width="20" height="20" as="geometry" />
        </mxCell>
        <mxCell id="tZy0hRPs5cQLzcROsrVT-55" value="" style="ellipse;whiteSpace=wrap;html=1;aspect=fixed;fillColor=#d5e8d4;strokeColor=#82b366;" vertex="1" parent="1">
          <mxGeometry x="10" y="70" width="20" height="20" as="geometry" />
        </mxCell>
        <mxCell id="tZy0hRPs5cQLzcROsrVT-56" value="" style="ellipse;whiteSpace=wrap;html=1;aspect=fixed;fillColor=#f8cecc;strokeColor=#b85450;" vertex="1" parent="1">
          <mxGeometry x="10" y="100" width="20" height="20" as="geometry" />
        </mxCell>
        <mxCell id="tZy0hRPs5cQLzcROsrVT-57" value="" style="ellipse;whiteSpace=wrap;html=1;aspect=fixed;fillColor=#fff2cc;strokeColor=#d6b656;" vertex="1" parent="1">
          <mxGeometry x="10" y="130" width="20" height="20" as="geometry" />
        </mxCell>
        <mxCell id="tZy0hRPs5cQLzcROsrVT-58" value="Frontend - React ts" style="text;html=1;align=center;verticalAlign=middle;resizable=0;points=[];autosize=1;strokeColor=none;fillColor=none;" vertex="1" parent="1">
          <mxGeometry x="30" y="5" width="130" height="30" as="geometry" />
        </mxCell>
        <mxCell id="tZy0hRPs5cQLzcROsrVT-59" value="API Gatway - Cloudflare API Gateway" style="text;html=1;align=center;verticalAlign=middle;resizable=0;points=[];autosize=1;strokeColor=none;fillColor=none;" vertex="1" parent="1">
          <mxGeometry x="30" y="35" width="220" height="30" as="geometry" />
        </mxCell>
        <mxCell id="tZy0hRPs5cQLzcROsrVT-60" value="Backend - Laravel" style="text;html=1;align=center;verticalAlign=middle;resizable=0;points=[];autosize=1;strokeColor=none;fillColor=none;" vertex="1" parent="1">
          <mxGeometry x="30" y="65" width="120" height="30" as="geometry" />
        </mxCell>
        <mxCell id="tZy0hRPs5cQLzcROsrVT-61" value="Backend - ServiÃ§o de Authorization e Authentication" style="text;html=1;align=center;verticalAlign=middle;resizable=0;points=[];autosize=1;strokeColor=none;fillColor=none;" vertex="1" parent="1">
          <mxGeometry x="30" y="95" width="300" height="30" as="geometry" />
        </mxCell>
        <mxCell id="tZy0hRPs5cQLzcROsrVT-62" value="Database - PostgreSQL" style="text;html=1;align=center;verticalAlign=middle;resizable=0;points=[];autosize=1;strokeColor=none;fillColor=none;" vertex="1" parent="1">
          <mxGeometry x="30" y="125" width="150" height="30" as="geometry" />
        </mxCell>
        <mxCell id="tZy0hRPs5cQLzcROsrVT-63" value="" style="shape=flexArrow;endArrow=classic;html=1;rounded=0;" edge="1" parent="1">
          <mxGeometry width="50" height="50" relative="1" as="geometry">
            <mxPoint x="589.5" y="400" as="sourcePoint" />
            <mxPoint x="590" y="440" as="targetPoint" />
          </mxGeometry>
        </mxCell>
        <mxCell id="tZy0hRPs5cQLzcROsrVT-64" value="- Token JWT&lt;div&gt;- AutÃªnticaÃ§Ã£o de usuÃ¡rio(Login e Logout)&lt;/div&gt;&lt;div&gt;- AutorizaÃ§Ã£o de rota(Checar se o usuÃ¡rio estÃ¡ autenticado, entÃ£o, permitir a navegaÃ§Ã£o na rota apÃ³s vÃ¡lidar o Token e checar as permissÃµes ou entÃ£o invÃ¡lidar a navegaÃ§Ã£o.&lt;/div&gt;" style="rounded=0;whiteSpace=wrap;html=1;fillColor=#f8cecc;strokeColor=#b85450;align=left;" vertex="1" parent="1">
          <mxGeometry x="530" y="440" width="260" height="170" as="geometry" />
        </mxCell>
        <mxCell id="tZy0hRPs5cQLzcROsrVT-66" value="" style="shape=flexArrow;endArrow=classic;html=1;rounded=0;" edge="1" parent="1">
          <mxGeometry width="50" height="50" relative="1" as="geometry">
            <mxPoint x="79.71000000000004" y="400" as="sourcePoint" />
            <mxPoint x="80.21000000000004" y="440" as="targetPoint" />
          </mxGeometry>
        </mxCell>
        <mxCell id="tZy0hRPs5cQLzcROsrVT-67" value="&lt;div style=&quot;&quot;&gt;PÃ¡ginas&lt;/div&gt;&lt;div style=&quot;&quot;&gt;&lt;br&gt;&lt;/div&gt;&lt;div style=&quot;text-align: left;&quot;&gt;- Login&lt;/div&gt;&lt;div style=&quot;text-align: left;&quot;&gt;- Cadastro de usuÃ¡rio&lt;/div&gt;&lt;div style=&quot;text-align: left;&quot;&gt;- PÃ¡gina inicial&lt;/div&gt;&lt;div style=&quot;text-align: left;&quot;&gt;- PÃ¡gina de criaÃ§Ã£o de artigo&lt;/div&gt;&lt;div style=&quot;text-align: left;&quot;&gt;- PÃ¡gina de perfil de usuÃ¡rio&lt;/div&gt;" style="rounded=0;whiteSpace=wrap;html=1;fillColor=#dae8fc;strokeColor=#6c8ebf;align=center;" vertex="1" parent="1">
          <mxGeometry y="440" width="260" height="170" as="geometry" />
        </mxCell>
        <mxCell id="tZy0hRPs5cQLzcROsrVT-68" value="Microservices&lt;div&gt;&lt;br&gt;&lt;/div&gt;&lt;div style=&quot;text-align: left;&quot;&gt;- admin-service: ServiÃ§o de aÃ§Ãµes privilegiadas&lt;/div&gt;&lt;div style=&quot;text-align: left;&quot;&gt;- user-service: ServiÃ§o relacionado a usuÃ¡rio&lt;/div&gt;&lt;div style=&quot;text-align: left;&quot;&gt;- user-profile-service: ServiÃ§o relacionado a perfil de usuÃ¡rio&lt;/div&gt;&lt;div style=&quot;text-align: left;&quot;&gt;- article-service: ServiÃ§o relacionado a criaÃ§Ã£o de artigo e etc&lt;/div&gt;&lt;div style=&quot;text-align: left;&quot;&gt;- role-service: ServiÃ§o relacionado as roles de usuÃ¡rio(membro, mod, admin e etc)&lt;/div&gt;&lt;div style=&quot;text-align: left;&quot;&gt;- topic-service: ServiÃ§o relacionado por vincular os artigos a um tÃ³pico&lt;/div&gt;&lt;div style=&quot;text-align: left;&quot;&gt;- comment-service: ServiÃ§o relacionado a gestÃ£o de comentÃ¡rios&lt;/div&gt;&lt;div style=&quot;text-align: left;&quot;&gt;- notification-service: ServiÃ§o relacionado a gestÃ£o de notificaÃ§Ãµes&lt;/div&gt;&lt;div style=&quot;text-align: left;&quot;&gt;- search-servic: ServiÃ§o relacionado a busca de artigos e membros na plataforma&lt;/div&gt;" style="rounded=0;whiteSpace=wrap;html=1;fillColor=#d5e8d4;strokeColor=#82b366;align=center;" vertex="1" parent="1">
          <mxGeometry x="520" y="10" width="460" height="220" as="geometry" />
        </mxCell>
      </root>
    </mxGraphModel>
  </diagram>
</mxfile>
